<?xml version="1.0" encoding="UTF-8"?>
<svg width="724.53" height="724.53" xmlns:cc="http://creativecommons.org/ns#" xmlns:dc="http://purl.org/dc/elements/1.1/" xmlns:rdf="http://www.w3.org/1999/02/22-rdf-syntax-ns#" version="1.1" viewBox="-4.5409 -4.5409 151.36 151.36" xmlns="http://www.w3.org/2000/svg">
 <path d="m97.198 73.86s-0.835 0.0562-1.245 0.12125c-1.5838 0.255-2.055 0.68375-2.055 2.6338v15.382c0 2.0975 1.3062 2.2225 3.1488 2.3262 4.4975 0.255 7.11-3.74 7.11-10.201 0-6.465-2.595-10.262-6.9587-10.262 0 0-0.835 0.0562-1.245 0.12125-1.5838 0.255-2.055 0.68375-2.055 2.6338v15.382c0 2.0975 1.3062 2.2225 3.1488 2.3262 4.4975 0.255 7.11-3.74 7.11-10.201 0-6.465-2.595-10.262-6.9587-10.262m-47.212 0.225c-4.0338 0-6.525 3.8488-6.525 10.228 0 6.2362 2.4512 10.011 6.5988 10.011 4.035 0 6.565-3.9225 6.565-10.08 0-6.2362-2.5688-10.159-6.6388-10.159m24.076 0c-4.035 0-6.5312 3.8488-6.5312 10.228 0 6.2362 2.4575 10.011 6.6038 10.011 4.0312 0 6.5612-3.9225 6.5612-10.08 0-6.2362-2.565-10.159-6.6338-10.159m23.136-0.225s-0.835 0.0562-1.245 0.12125c-1.5838 0.255-2.055 0.68375-2.055 2.6338v15.382c0 2.0975 1.3062 2.2225 3.1488 2.3262 4.4975 0.255 7.11-3.74 7.11-10.201 0-6.465-2.595-10.262-6.9587-10.262 0 0-0.835 0.0562-1.245 0.12125-1.5838 0.255-2.055 0.68375-2.055 2.6338v15.382c0 2.0975 1.3062 2.2225 3.1488 2.3262 4.4975 0.255 7.11-3.74 7.11-10.201 0-6.465-2.595-10.262-6.9587-10.262m-23.136 0.225c-4.035 0-6.5312 3.8488-6.5312 10.228 0 6.2362 2.4575 10.011 6.6038 10.011 4.0312 0 6.5612-3.9225 6.5612-10.08 0-6.2362-2.565-10.159-6.6338-10.159m-24.076 0c-4.0338 0-6.525 3.8488-6.525 10.228 0 6.2362 2.4512 10.011 6.5988 10.011 4.035 0 6.565-3.9225 6.565-10.08 0-6.2362-2.5688-10.159-6.6388-10.159m3.2962 36.15c-0.0613-0.1125-0.965-1.9812-1.0725-2.215-0.1-0.2075-0.35-0.22-0.44125 9e-3 -0.10375 0.255-0.995 2.0462-1.055 2.175-0.1 0.2125 0.0125 0.35125 0.21625 0.35125h2.1312c0.15625 0 0.31125-0.13875 0.22125-0.32m-3.2962-36.15c-4.0338 0-6.525 3.8488-6.525 10.228 0 6.2362 2.4512 10.011 6.5988 10.011 4.035 0 6.565-3.9225 6.565-10.08 0-6.2362-2.5688-10.159-6.6388-10.159m24.076 0c-4.035 0-6.5312 3.8488-6.5312 10.228 0 6.2362 2.4575 10.011 6.6038 10.011 4.0312 0 6.5612-3.9225 6.5612-10.08 0-6.2362-2.565-10.159-6.6338-10.159m23.136-0.225s-0.835 0.0562-1.245 0.12125c-1.5838 0.255-2.055 0.68375-2.055 2.6338v15.382c0 2.0975 1.3062 2.2225 3.1488 2.3262 4.4975 0.255 7.11-3.74 7.11-10.201 0-6.465-2.595-10.262-6.9587-10.262 0 0-0.835 0.0562-1.245 0.12125-1.5838 0.255-2.055 0.68375-2.055 2.6338v15.382c0 2.0975 1.3062 2.2225 3.1488 2.3262 4.4975 0.255 7.11-3.74 7.11-10.201 0-6.465-2.595-10.262-6.9587-10.262m-23.136 0.225c-4.035 0-6.5312 3.8488-6.5312 10.228 0 6.2362 2.4575 10.011 6.6038 10.011 4.0312 0 6.5612-3.9225 6.5612-10.08 0-6.2362-2.565-10.159-6.6338-10.159m-24.076 0c-4.0338 0-6.525 3.8488-6.525 10.228 0 6.2362 2.4512 10.011 6.5988 10.011 4.035 0 6.565-3.9225 6.565-10.08 0-6.2362-2.5688-10.159-6.6388-10.159m3.2962 36.15c-0.0613-0.1125-0.965-1.9812-1.0725-2.215-0.1-0.2075-0.35-0.22-0.44125 9e-3 -0.10375 0.255-0.995 2.0462-1.055 2.175-0.1 0.2125 0.0125 0.35125 0.21625 0.35125h2.1312c0.15625 0 0.31125-0.13875 0.22125-0.32-0.0613-0.1125-0.965-1.9812-1.0725-2.215-0.1-0.2075-0.35-0.22-0.44125 9e-3 -0.10375 0.255-0.995 2.0462-1.055 2.175-0.1 0.2125 0.0125 0.35125 0.21625 0.35125h2.1312c0.15625 0 0.31125-0.13875 0.22125-0.32m-3.2962-36.151c-4.0338 0-6.525 3.8488-6.525 10.228 0 6.2362 2.4512 10.011 6.5988 10.011 4.035 0 6.565-3.9225 6.565-10.08 0-6.2362-2.5688-10.159-6.6388-10.159m17.174 32.34h-2.7162c-0.28125 0-0.575 0.0987-0.575 0.44875v1.9812c0 0.31125 0.29375 0.4925 0.575 0.4925h2.7162c0.9125 0 1.6562-0.48 1.6562-1.4612s-0.74375-1.4612-1.6562-1.4612m6.9025-32.34c-4.035 0-6.5312 3.8488-6.5312 10.228 0 6.2362 2.4575 10.011 6.6038 10.011 4.0312 0 6.5612-3.9225 6.5612-10.08 0-6.2362-2.565-10.159-6.6338-10.159m23.136-0.225s-0.835 0.0562-1.245 0.12125c-1.5838 0.255-2.055 0.68375-2.055 2.6338v15.382c0 2.0975 1.3062 2.2225 3.1488 2.3262 4.4975 0.255 7.11-3.74 7.11-10.201 0-6.465-2.595-10.262-6.9587-10.262 0 0-0.835 0.0562-1.245 0.12125-1.5838 0.255-2.055 0.68375-2.055 2.6338v15.382c0 2.0975 1.3062 2.2225 3.1488 2.3262 4.4975 0.255 7.11-3.74 7.11-10.201 0-6.465-2.595-10.262-6.9587-10.262m-23.136 0.225c-4.035 0-6.5312 3.8488-6.5312 10.228 0 6.2362 2.4575 10.011 6.6038 10.011 4.0312 0 6.5612-3.9225 6.5612-10.08 0-6.2362-2.565-10.159-6.6338-10.159m-24.076 0c-4.0338 0-6.525 3.8488-6.525 10.228 0 6.2362 2.4512 10.011 6.5988 10.011 4.035 0 6.565-3.9225 6.565-10.08 0-6.2362-2.5688-10.159-6.6388-10.159m17.174 32.34h-2.7162c-0.28125 0-0.575 0.0987-0.575 0.44875v1.9812c0 0.31125 0.29375 0.4925 0.575 0.4925h2.7162c0.9125 0 1.6562-0.48 1.6562-1.4612s-0.74375-1.4612-1.6562-1.4612m-13.878 3.81c-0.0613-0.1125-0.965-1.9812-1.0725-2.215-0.1-0.2075-0.35-0.22-0.44125 9e-3 -0.10375 0.255-0.995 2.0462-1.055 2.175-0.1 0.2125 0.0125 0.35125 0.21625 0.35125h2.1312c0.15625 0 0.31125-0.13875 0.22125-0.32-0.0613-0.1125-0.965-1.9812-1.0725-2.215-0.1-0.2075-0.35-0.22-0.44125 9e-3 -0.10375 0.255-0.995 2.0462-1.055 2.175-0.1 0.2125 0.0125 0.35125 0.21625 0.35125h2.1312c0.15625 0 0.31125-0.13875 0.22125-0.32m-3.2962-36.151c-4.0338 0-6.525 3.8488-6.525 10.228 0 6.2362 2.4512 10.011 6.5988 10.011 4.035 0 6.565-3.9225 6.565-10.08 0-6.2362-2.5688-10.159-6.6388-10.159m17.174 32.34h-2.7162c-0.28125 0-0.575 0.0987-0.575 0.44875v1.9812c0 0.31125 0.29375 0.4925 0.575 0.4925h2.7162c0.9125 0 1.6562-0.48 1.6562-1.4612s-0.74375-1.4612-1.6562-1.4612m6.9025-32.34c-4.035 0-6.5312 3.8488-6.5312 10.228 0 6.2362 2.4575 10.011 6.6038 10.011 4.0312 0 6.5612-3.9225 6.5612-10.08 0-6.2362-2.565-10.159-6.6338-10.159m23.136-0.225s-0.835 0.0562-1.245 0.12125c-1.5838 0.255-2.055 0.68375-2.055 2.6338v15.382c0 2.0975 1.3062 2.2225 3.1488 2.3262 4.4975 0.255 7.11-3.74 7.11-10.201 0-6.465-2.595-10.262-6.9587-10.262 0 0-0.835 0.0562-1.245 0.12125-1.5838 0.255-2.055 0.68375-2.055 2.6338v15.382c0 2.0975 1.3062 2.2225 3.1488 2.3262 4.4975 0.255 7.11-3.74 7.11-10.201 0-6.465-2.595-10.262-6.9587-10.262m-23.136 0.225c-4.035 0-6.5312 3.8488-6.5312 10.228 0 6.2362 2.4575 10.011 6.6038 10.011 4.0312 0 6.5612-3.9225 6.5612-10.08 0-6.2362-2.565-10.159-6.6338-10.159m-24.076 0c-4.0338 0-6.525 3.8488-6.525 10.228 0 6.2362 2.4512 10.011 6.5988 10.011 4.035 0 6.565-3.9225 6.565-10.08 0-6.2362-2.5688-10.159-6.6388-10.159m17.174 32.34h-2.7162c-0.28125 0-0.575 0.0987-0.575 0.44875v1.9812c0 0.31125 0.29375 0.4925 0.575 0.4925h2.7162c0.9125 0 1.6562-0.48 1.6562-1.4612s-0.74375-1.4612-1.6562-1.4612m-13.878 3.81c-0.0613-0.1125-0.965-1.9812-1.0725-2.215-0.1-0.2075-0.35-0.22-0.44125 9e-3 -0.10375 0.255-0.995 2.0462-1.055 2.175-0.1 0.2125 0.0125 0.35125 0.21625 0.35125h2.1312c0.15625 0 0.31125-0.13875 0.22125-0.32m74.755-14.017c0-0.255-0.255-0.31625-0.50625-0.31625h-0.345v0.6275h0.25875c0.31625 0 0.5925-0.0175 0.5925-0.31125m0 1.565-0.63999-0.90375h-0.21626v0.90375h-0.38125v-2.2312h0.83875c0.52375 0 0.76125 0.2075 0.76125 0.66625 0 0.445-0.24625 0.6175-0.57 0.6525l0.6475 0.9125zm-0.51499-2.595c-0.86126 0-1.5012 0.645-1.5012 1.535 0 0.89125 0.63999 1.5312 1.5012 1.5312 0.86499 0 1.5-0.64 1.5-1.5312 0-0.89-0.635-1.535-1.5-1.535m-75.318 12.831c-0.1-0.2075-0.35-0.22-0.44125 9e-3 -0.10375 0.255-0.995 2.0462-1.055 2.175-0.1 0.2125 0.0125 0.35125 0.21625 0.35125h2.1312c0.15625 0 0.31125-0.13875 0.22125-0.32-0.0613-0.1125-0.965-1.9812-1.0725-2.215m-2.2238-33.935c-4.0338 0-6.525 3.8488-6.525 10.228 0 6.2362 2.4512 10.011 6.5988 10.011 4.035 0 6.565-3.9225 6.565-10.08 0-6.2362-2.5688-10.159-6.6388-10.159m17.174 32.34h-2.7162c-0.28125 0-0.575 0.0987-0.575 0.44875v1.9812c0 0.31125 0.29375 0.49251 0.575 0.49251h2.7162c0.9125 0 1.6562-0.48001 1.6562-1.4613s-0.74375-1.4612-1.6562-1.4612m6.9025-32.34c-4.035 0-6.5312 3.8488-6.5312 10.228 0 6.2362 2.4575 10.011 6.6038 10.011 4.0312 0 6.5612-3.9225 6.5612-10.08 0-6.2362-2.565-10.159-6.6338-10.159m30.095 10.038c0-6.465-2.595-10.262-6.9587-10.262 0 0-0.835 0.0562-1.245 0.12125-1.5838 0.255-2.055 0.68375-2.055 2.6338v15.382c0 2.0975 1.3062 2.2225 3.1488 2.3262 4.4975 0.255 7.11-3.74 7.11-10.201m25.32-17.8c-0.14625 0.67375-0.56625 0.92125-1.3062 0.92125l-0.9375 4e-3h-14.398c-1.2362 0-1.6562-0.24625-1.6562-1.0638 0-0.54 0.42-0.98625 0.9125-0.98625h0.74375c0.255 0 0.51125-0.225 0.58875-0.47125 0.1125-0.29875 0.1425-0.48 0.1425-1.47v-16.416c0-0.95125-0.03-1.1425-0.1425-1.44-0.0775-0.325-0.3725-0.545-0.58875-0.545h-0.74375c-0.4925 0-0.9425-0.48-0.9425-1.025 0-0.81375 0.45-1.0775 1.6862-1.0775h14.656c0.74 0 1.155 0.2475 1.3062 0.92125l0.51875 2.5525c0.19875 0.9425-0.13375 1.4488-0.80375 1.4488-0.355 0-0.69625-0.0913-0.94375-0.57125-0.0425-0.0737-0.19375-0.34125-0.3625-0.79125-0.35875-0.94375-1.0988-1.06-2.8075-1.06h-3.4588c-2.0025 0-2.2275 0.26375-2.2275 2.2138v4.36c0 0.82125 0.11625 1.18 0.3375 1.3275 0.16875 0.11625 0.44125 0.1425 1.4925 0.1425h1.7075c1.54 0 1.76-0.1125 1.8725-0.8475l0.0263-0.225c0.1125-0.6225 0.44125-0.91625 0.995-0.91625 0.76875 0 1.025 0.43625 1.025 1.725v3.0838c0 1.2838-0.25625 1.725-1.025 1.725-0.55375 0-0.8825-0.3325-0.995-0.955l-0.0387-0.2425c-0.10875-0.735-0.32875-0.84375-1.8725-0.84375h-1.695c-1.0512 0-1.3238 0.0263-1.4925 0.1425-0.22125 0.1475-0.3375 0.5025-0.3375 1.3288v4.6525c0 1.9425 0.11625 2.3525 0.69625 2.5775 0.47125 0.1775 0.98125 0.255 2.1838 0.255l3.65-9e-3c1.31 0 2.2362-0.41 2.69-1.3612 0.2075-0.4325 0.2725-0.5975 0.31625-0.67125 0.24625-0.48 0.635-0.69125 0.99375-0.69125 0.66625 0 0.995 0.50625 0.8 1.4488l-0.56625 2.85zm-1.95 32.314c-1.06 0-1.9075-0.85624-1.9075-1.9125 0-1.0638 0.8475-1.915 1.9075-1.915 1.055 0 1.9075 0.85126 1.9075 1.915 0 1.0562-0.8525 1.9125-1.9075 1.9125m-8.55-1.6562c-1.3538 0-2.8062-0.19124-3.8538-0.51999-0.5275-0.1425-0.5875-0.18125-0.795-0.18125-0.31125 0-0.4675 0.0738-0.7825 0.36375-0.34625 0.26375-0.5275 0.33749-0.8525 0.33749-0.61375 0-0.91625-0.33749-1.1325-1.2162l-0.92625-3.6712c-0.0688-0.22-0.095-0.55375-0.095-0.735 0-0.6525 0.50625-1.1462 1.1588-1.1462 0.38125 0 0.69625 0.195 0.92125 0.49375l0.5275 0.72625c1.2712 1.795 3.3262 2.9062 5.4238 2.9062 2.3825 0 4.0088-1.3325 4.0088-3.2738 0-0.995-0.41124-1.8725-1.1937-2.755-0.795-0.8775-1.7812-1.6862-3.8925-3.1525-3.4762-2.435-3.8012-2.6562-4.9425-3.97-0.925-1.0725-1.3975-2.3875-1.3975-3.8538 0-3.5588 2.7075-5.9112 6.7512-5.9112 1.0375 0 2.0975 0.0987 3.1662 0.32875 0.11125 0.0388 0.41 0.1075 0.92875 0.225 0.16875 0.0337 0.36 0.0725 0.5025 0.0725 0.2425 0 0.5225-0.12 0.8425-0.3325 0.36375-0.26375 0.47999-0.29375 0.775-0.29375 0.53999 0 0.88624 0.3675 1.0338 1.025l0.87749 3.97c0.065 0.1725 0.065 0.39375 0.065 0.51 0 0.48-0.42875 0.8775-1.055 0.8775-0.39375 0-0.63625-0.14625-0.97375-0.6175-0.82624-1.25-0.98124-1.3938-1.7475-1.985-0.985-0.77-2.2488-1.1812-3.45-1.1812-1.6963 0-2.7938 0.965-2.7938 2.47 0 0.54 0.095 1.0975 0.39749 1.5038 0.37125 0.55375 0.96 1.1338 1.6862 1.6875 0.45375 0.32375 1.0338 0.74375 1.8162 1.2888 2.8975 2.0188 3.8488 2.755 5.03 3.9612 1.2412 1.2838 1.985 3.1175 1.985 5.0038 0 4.2425-3.1662 7.045-8.0138 7.045m-9.2675 9.4612h-2.1362c-0.29375 0-0.50625 0.0962-0.50625 0.45l0.0125 6.3875c0 0.45-0.31999 0.5025-0.82125 0.5025-0.48375 0-0.80875-0.0487-0.80875-0.485v-6.3962c0-0.31125-0.1125-0.45875-0.50125-0.45875h-2.1625c-0.35 0-0.45-0.33625-0.45-0.6175 0-0.31125-0.0263-0.9125 0.4375-0.9125h6.9012c0.31125 0 0.51875 0.1725 0.51875 0.74375 0 0.50625-0.13375 0.78625-0.48375 0.78625m-17.749 1.9762h3.0488c0.3675 0 0.46375 0.32125 0.46375 0.7875 0 0.40625-0.0875 0.76125-0.42875 0.76125h-3.04c-0.2425 0-0.4625 0.16875-0.4625 0.45v1.2925c0 0.31125 0.16875 0.45875 0.41875 0.45875h5.2288c0.34625 0 0.4675 0.22875 0.4675 0.8 0 0.41125-0.095 0.74875-0.4625 0.74875h-6.7338c-0.39 0-0.55-0.18625-0.55-0.64875v-7.5862c0-0.345 0.13875-0.5875 0.54125-0.5875h6.755c0.4025 0 0.475 0.2675 0.475 0.7475 0 0.44625-0.06 0.8-0.49625 0.8h-5.2812c-0.21125 0-0.3625 0.165-0.3625 0.39375v1.1938c0 0.25125 0.18125 0.38875 0.41875 0.38875m-5.5475-13.125c0-0.55375 0.3675-1.02 0.8725-1.02h0.74875c0.25125 0 0.50125-0.195 0.6225-0.48 0.0737-0.26375 0.1125-0.485 0.1125-1.445v-16.342c0-0.95625-0.0387-1.18-0.1125-1.445-0.12125-0.28-0.37125-0.48-0.6225-0.48h-0.74875c-0.505 0-0.8725-0.46625-0.8725-1.02 0-0.8 0.5525-0.9125 1.6212-1.0725 1.0725-0.15625 4.065-0.56625 8.645-0.56625 4.575 0 7.4162 0.99375 9.665 3.2688 2.1588 2.1675 3.33 5.505 3.33 9.4712 0 4.4412-1.4962 8.1125-4.22 10.28-2.115 1.7125-4.77 2.4913-8.775 2.4913-4.58 0-7.5725-0.41125-8.645-0.5675-1.0688-0.155-1.6212-0.2675-1.6212-1.0725m-12.391 1.6738c-5.92 0-10.158-3.3425-11.52-8.7313-0.0175-0.0388-0.03-0.0775-0.0387-0.12125-0.12125-0.605-0.66625-0.64875-0.79625-4e-3 0 0.0213-0.0175 0.0425-0.0263 0.065-1.375 5.4662-5.635 8.7913-11.694 8.7913-7.2612 0-11.988-5.025-11.988-12.689 0-7.8438 4.6925-12.835 12.061-12.835 6.05 0 10.354 3.3738 11.672 8.8738 0.13875 0.63125 0.675 0.58375 0.79125-0.0163 0-9e-3 0-0.0175 0.0125-0.0225 1.345-5.5012 5.5788-8.835 11.602-8.835 7.335 0 12.1 4.9512 12.1 12.654 0 7.845-4.73 12.87-12.174 12.87m10.164 16.819c-0.74375 0-0.9475-0.11625-1.1375-0.34625l-2.8238-3.0138c-0.385-0.33375-0.77-0.385-1.2975-0.385-0.295 0-0.52375 0.3025-0.52375 0.6525v2.5688c0 0.48875-0.41875 0.52-0.8775 0.52-0.485 0-0.74-0.135-0.74-0.52375v-7.8412c0-0.4625 0.29-0.54 0.86125-0.54 0.45 0 0.75625 0.10375 0.75625 0.5275v2.3662c0 0.38 0.17375 0.56625 0.41125 0.56625 0.6875 0 0.835-0.1475 1.09-0.3675 0.285-0.2425 3.1825-2.9025 3.1825-2.9025 0.36375-0.31125 0.73125-0.30626 1.0812 0.03 0.29 0.2775 0.41875 0.58875 0.095 0.90875-0.225 0.22-2.7675 2.5212-2.7675 2.5212-0.31625 0.2725-0.2375 0.5275-0.0213 0.76499 0 0 3.0525 3.365 3.3725 3.7113 0.48 0.5225 0.0387 0.7825-0.66125 0.7825m-15.518-2.8462c0.07 0.105 1.3062 1.8988 1.4875 2.1675 0.2725 0.40625 0.0263 0.675-0.81625 0.675-0.47125 0-0.7875-0.0825-0.99125-0.385l-1.37-2.1288c-0.15625-0.2375-0.38125-0.38875-0.68875-0.38875h-1.9588c-0.2375 0-0.4625 0.195-0.4625 0.4325l0.0125 2.1238c0 0.41874-0.8125 0.35-1.08 0.35-0.35125 0-0.545-0.1-0.545-0.4925l0.0125-8.075c0-0.21125 0.18125-0.3375 0.37625-0.3375h4.645c1.7938 0 3.1438 1.155 3.1438 3.0062 0 1.6-1.155 2.1238-1.6175 2.5162-0.22875 0.2-0.285 0.3375-0.1475 0.53625m-13.055 2.8462c-0.26875 0-0.675-0.0438-0.80125-0.3375l-0.57-1.18c-0.0738-0.15625-0.225-0.28125-0.41125-0.28125h-3.6375c-0.22875 0-0.43625 0.1725-0.56625 0.4975l-0.505 0.96375c-0.1125 0.28125-0.6625 0.325-0.9175 0.325-0.225 0-0.96375-0.0263-0.73125-0.52l3.8625-8.0125c0.1075-0.23375 0.31125-0.41125 0.675-0.41125 0.3625 0 0.56125 0.12125 0.6825 0.38 0 0 3.6888 7.8625 3.7925 8.0925 0.19125 0.41-0.605 0.48375-0.8725 0.48375m-13.982 0c-0.225 0-0.64375-0.125-0.64375-0.42l-0.6225-4.7088c-0.04-0.195-0.1125-0.28125-0.26875-0.28125-0.125 0-0.19 0.06-0.27625 0.16875l-2.115 2.7075c-0.10875 0.14625-0.25125 0.2375-0.42 0.2375-0.24125 0-0.34625-0.0613-0.48375-0.26375l-1.9462-2.625c-0.0862-0.10875-0.18125-0.13875-0.28125-0.13875-0.155 0-0.23375 0.13875-0.255 0.32l-0.61 4.5538c-0.0563 0.37625-0.51875 0.45-0.9 0.45-0.26375 0-0.7125-0.125-0.7125-0.4625l0.895-7.6762c0.095-0.45875 0.19375-0.7225 0.85625-0.7225 0.16875 0 0.44125 0.0475 0.6525 0.37625l2.4175 3.3988c0.13 0.18625 0.2775 0.3425 0.4375 0.3375 0.16-4e-3 0.32375-0.16875 0.4625-0.35l2.5512-3.4688c0.15625-0.2375 0.39375-0.3375 0.675-0.3375 0.30625 0 0.53125 0.07 0.66125 0.585l0.895 7.87c0.0438 0.45-0.66125 0.45-0.96875 0.45m-15.209-21.358c0 0.99 0 1.1675 0.0863 1.4262 0.155 0.29375 0.48875 0.485 0.7825 0.485h0.83c0.575 0 0.97375 0.47125 0.97375 1.025 0 0.80876-0.45 1.0638-1.8038 1.0638h-6.755c-1.2538 0-1.695-0.255-1.695-1.0638 0-0.55375 0.44125-1.025 0.94625-1.025h0.74875c0.25 0 0.4975-0.19125 0.61875-0.485 0.0775-0.25875 0.11625-0.43625 0.11625-1.4262v-16.418c0-0.95125-0.03-1.1412-0.1475-1.435-0.0775-0.325-0.37125-0.55-0.5875-0.55h-0.74375c-0.49375 0-0.9425-0.475-0.9425-1.0238 0-0.80875 0.44875-1.0725 1.6862-1.0725h15.915c0.73875 0 1.1588 0.24625 1.305 0.92l0.52 2.5525c0.19875 0.9375-0.135 1.4488-0.80125 1.4488-0.35875 0-0.7-0.095-0.94625-0.575-0.0438-0.07-0.19-0.3425-0.36375-0.7875-0.35875-0.9425-1.0988-1.0638-2.8062-1.0638h-4.7138c-2.0062 0-2.2312 0.2675-2.2312 2.2138v4.3638c0 0.82125 0.11625 1.1762 0.34125 1.3275 0.16875 0.1175 0.43625 0.1425 1.4925 0.1425h3.035c1.54 0 1.76-0.1125 1.8725-0.8475l0.0263-0.22875c0.1125-0.6225 0.44125-0.9175 0.99-0.9175 0.775 0 1.03 0.44125 1.03 1.7262v3.0875c0 1.285-0.255 1.725-1.03 1.725-0.54875 0-0.8775-0.3325-0.99-0.955l-0.03885-0.2425c-0.10875-0.735-0.32875-0.8475-1.8725-0.8475h-3.0225c-1.0562 0-1.3238 0.0263-1.4925 0.1425-0.225 0.15125-0.34125 0.50625-0.34125 1.3325l0.0125 5.9812zm-12.084-45.816c-0.54875-1.5088-0.7225-1.69-1.8988-1.945-0.7825-0.14375-1.025-0.39875-1.025-0.99125 0-0.6225 0.39-0.95125 1.2325-0.95125h7.5812c0.835 0 1.2062 0.32875 1.2062 0.99 0 0.61875-0.37125 0.87-1.3225 0.9525-0.80875 0.0725-1.1375 0.3325-1.1375 0.91625 0 0.25125 0.03 0.515 0.13375 0.8175l0.29 0.83875s4.0525 11.478 4.6925 13.324c0.1075 0.295 0.44125 0.28125 0.55375-0.0475 0.7125-2.045 2.65-7.6712 2.72-7.9 0.19875-0.64875 0.285-1.3325 0.0512-2.0812-0.0813-0.26375-1.3225-3.9225-1.3225-3.9225-0.13875-0.3975-0.22125-0.69125-0.30375-0.8425-0.21625-0.53625-0.51375-0.73125-1.3612-0.95625-0.7575-0.18625-1.0475-0.43625-1.0475-0.98125 0-0.705 0.42375-1.1075 1.28-1.1075h7.205c0.835 0 1.2412 0.32875 1.2412 0.99 0 0.58375-0.37125 0.87-1.1888 0.98625-0.9775 0.1125-1.2412 0.3375-1.2412 0.995 0 0.3325 0.0737 0.66125 0.37625 1.5438 0 0 3.555 11.249 4.1175 13.018 0.1075 0.3325 0.42375 0.25875 0.51375-0.035 0.55375-1.7988 4.07-13.61 4.07-13.61 0.10375-0.3675 0.1425-0.66125 0.1425-0.88125 0-0.55-0.39375-0.84375-1.285-0.95625-0.80875-0.0738-1.18-0.44125-1.18-1.025 0-0.735 0.42-1.025 1.3962-1.025h12.724c1.2112 0 1.6125 0.24625 1.6125 1.0512 0 0.60125-0.40125 1.0375-0.9075 1.0375h-0.705c-0.3025 0-0.58875 0.225-0.70125 0.4675-0.0688 0.2725-0.0987 0.5275-0.0987 1.4438v4.7362c0 1.695 0.14625 1.8375 1.505 1.8375h4.9862c0.73 0 1.1075-0.11625 1.2925-0.32875 0.16875-0.225 0.16875-0.3675 0.16875-1.73v-4.515c0-0.955 0-1.1712-0.09-1.4438-0.13-0.28125-0.42-0.4675-0.67125-0.4675h-0.7c-0.55375 0-0.99875-0.43625-0.99875-1.0375 0-0.805 0.445-1.0512 1.6988-1.0512h6.6738c1.2488 0 1.695 0.24625 1.695 1.0512 0 0.60125-0.44625 1.0375-0.9475 1.0375h-0.7475c-0.25125 0-0.545 0.225-0.62375 0.4675-0.10375 0.2725-0.12875 0.5275-0.12875 1.4438v16.486c0 0.955 0.025 1.1712 0.12875 1.47 0.0788 0.255 0.3725 0.4375 0.62375 0.4375h0.7475c0.545 0 0.9475 0.48 0.9475 1.0238 0 0.81375-0.4025 1.065-1.695 1.065h-6.6738c-1.2538 0-1.6512-0.25125-1.6512-1.065 0-0.54375 0.445-1.0238 0.95125-1.0238h0.7c0.25125 0 0.54125-0.1825 0.67125-0.4375 0.09-0.29875 0.09-0.515 0.09-1.47v-5.3588c0-1.3625 0-1.505-0.16875-1.725-0.185-0.21625-0.5625-0.33375-1.2925-0.33375h-4.9862c-1.3588 0-1.505 0.14375-1.505 1.8388v5.5788c0 0.955 0.03 1.1712 0.0987 1.47 0.1125 0.255 0.39875 0.4375 0.70125 0.4375h0.705c0.50625 0 0.8825 0.48 0.8825 1.0675 0 0.77-0.42 1.0212-1.5875 1.0212h-6.69c-1.2325 0-1.6788-0.25125-1.6788-1.065 0-0.54375 0.44625-1.0238 0.95125-1.0238h0.7275c0.25875 0 0.56125-0.1825 0.63125-0.4375 0.1125-0.29875 0.1125-0.48875 0.1125-1.47v-16.486c0-1.8725-0.87875-1.9975-1.5225-1.9112-0.64875 0.0913-1.0288 0.5025-1.4275 1.7988l-5.8512 18.839c-0.5275 1.795-1.025 2.3088-2.1225 2.3088-1.095 0-1.6525-0.475-2.0938-1.8338 0 0-3.0225-9.0375-3.1225-9.3362-0.10375-0.29875-0.415-0.3075-0.50125-0.0213-0.0825 0.28875-3.335 9.3575-3.335 9.3575-0.35375 0.87875-0.445 1.1338-0.74375 1.4325-0.28875 0.21625-0.77 0.40125-1.25 0.40125-1.0638 0-1.5862-0.44125-2.0925-1.8338l-7.205-19.314zm48.726-11.114c1.2275-4.5588 5.66-9.16 10.56-7.7538 4.1562 1.185 3.8625 4.6188 6.885 5.695 1.085 0.385 0.99875 1.475 0.0525 1.6562-1.5962 0.3025-3.75-0.85625-5.3588-2.3138-1.8812-1.7075-4.9388-1.6338-6.4312-0.4975-0.6525 0.4975-0.32 0.97375 0.2775 0.84 1.3838-0.29875 3.7275-0.37625 5.5312 1.6475 1.7725 1.9888 5.0762 3.7662 8 1.8588 0.805-0.5225 1.3275-1.6038 2.145-1.37 0.87375 0.24625 0.88625 1.5175-0.25875 2.9962-2.7038 3.4862-5.475 3.0712-8.4462 5.9812-2.9675 2.91-3.5675 6.2188-3.5675 10.422 0 6.5175 2.5638 10.465 6.8975 10.465 4.2162 0 6.8625-4.0988 6.8625-10.542 0-5.3112-1.2575-8.745-4.4112-9.9562-1.5262-0.56625-1.2662-2.0575 0.70125-2.2912 1.6212-0.19 3.2088 0.3625 4.9512 1.6475 3.0062 2.2138 4.5062 5.7338 4.5062 10.449 0 8.2038-4.9425 13.454-12.722 13.454-7.5938 0-12.538-5.25-12.538-13.264 0-5.155 1.9375-9.125 5.2888-11.365 1.4012-1.0475 3.7712-2.2538 6.0938-3.04 0.48-0.165 0.47625-1.0175-0.37625-0.8525-1.0162 0.20375-2.885 0.35-4.4288-0.2725-3.4638-1.3662-4.4712-3.81-8.5488-2.0588-1.2288 0.5275-2.02-0.22-1.665-1.535m30.99 7.2562h6.7812c1.3225 0 1.7725 0.26375 1.7725 1.0775 0 0.58375-0.45 1.025-0.9725 1.025h-0.8c-0.3375 0-0.66625 0.18125-0.77 0.48-0.10874 0.24625-0.10874 0.47125-0.10874 1.4275v15.416c0 1.6138 0.06999 1.99 0.5025 2.24 0.37625 0.26 0.9375 0.32875 2.4125 0.32875h2.0675c1.31 0 2.2362-0.41 2.69-1.3612 0.2075-0.4375 0.2725-0.5975 0.315-0.67125 0.2475-0.48 0.63625-0.69625 0.99125-0.69625 0.67 0 0.99875 0.51125 0.80375 1.4538l-0.56625 2.85c-0.1475 0.67375-0.56625 0.92125-1.3062 0.92125h-13.812c-1.2238 0-1.6262-0.2425-1.6262-1.06 0-0.54 0.4025-0.98625 0.91625-0.98625h0.71c0.2425 0 0.54-0.225 0.61375-0.47125 0.10875-0.2725 0.1425-0.45 0.1425-1.3662v-16.598c0-0.99125-0.0337-1.1375-0.1425-1.4275-0.0738-0.29875-0.37125-0.48-0.61375-0.48h-0.71c-0.5525 0-0.99875-0.44125-0.99875-1.025 0-0.81375 0.44625-1.0775 1.7088-1.0775m-22.912-47.294c-41.798 0-75.681 33.884-75.681 75.681 0 41.798 33.884 75.681 75.681 75.681 41.803 0 75.681-33.884 75.681-75.681 0-41.798-33.879-75.681-75.681-75.681m56.895 100.76c0-0.255-0.255-0.31625-0.50625-0.31625h-0.345v0.6275h0.25875c0.31625 0 0.5925-0.0175 0.5925-0.31125m0 1.565-0.63999-0.90375h-0.21626v0.90375h-0.38125v-2.2312h0.83875c0.52375 0 0.76125 0.20749 0.76125 0.66625 0 0.445-0.24625 0.6175-0.57 0.6525l0.6475 0.9125zm-0.51499-2.595c-0.86126 0-1.5012 0.64501-1.5012 1.535 0 0.89124 0.63999 1.5312 1.5012 1.5312 0.86499 0 1.5-0.64001 1.5-1.5312 0-0.89-0.635-1.535-1.5-1.535m-74.245 15.046c-0.0612-0.1125-0.965-1.9812-1.0725-2.215-0.1-0.2075-0.35-0.22-0.44125 9e-3 -0.10375 0.255-0.995 2.0462-1.055 2.175-0.1 0.2125 0.0125 0.35125 0.21625 0.35125h2.1312c0.15625 0 0.31125-0.13875 0.22125-0.32m13.878-3.81h-2.7162c-0.28125 0-0.575 0.0987-0.575 0.44875v1.9812c0 0.31125 0.29375 0.49251 0.575 0.49251h2.7162c0.9125 0 1.6562-0.48 1.6562-1.4612s-0.74375-1.4612-1.6562-1.4612m-17.174-32.34c-4.0338 0-6.525 3.8488-6.525 10.228 0 6.2362 2.4512 10.011 6.5988 10.011 4.035 0 6.565-3.9225 6.565-10.08 0-6.2362-2.5688-10.159-6.6388-10.159m24.076 0c-4.035 0-6.5312 3.8488-6.5312 10.228 0 6.2362 2.4575 10.011 6.6038 10.011 4.0312 0 6.5612-3.9225 6.5612-10.08 0-6.2362-2.565-10.159-6.6338-10.159m23.136-0.225s-0.835 0.0562-1.245 0.12125c-1.5838 0.255-2.055 0.68375-2.055 2.6338v15.382c0 2.0975 1.3062 2.2225 3.1488 2.3262 4.4975 0.255 7.11-3.74 7.11-10.201 0-6.465-2.595-10.262-6.9587-10.262m30.839 22.359c0-0.255-0.255-0.31625-0.50625-0.31625h-0.345v0.6275h0.25875c0.31625 0 0.5925-0.0175 0.5925-0.31125m0 1.565-0.64-0.90375h-0.21625v0.90375h-0.38125v-2.2312h0.83875c0.52375 0 0.76125 0.20749 0.76125 0.66625 0 0.445-0.24625 0.6175-0.57 0.6525l0.6475 0.9125zm-0.515-2.595c-0.86125 0-1.5012 0.64501-1.5012 1.535 0 0.89124 0.64 1.5312 1.5012 1.5312 0.865 0 1.5-0.64001 1.5-1.5312 0-0.89-0.635-1.535-1.5-1.535m-30.329-21.329s-0.835 0.0562-1.245 0.12125c-1.5838 0.255-2.055 0.68375-2.055 2.6338v15.382c0 2.0975 1.3062 2.2225 3.1488 2.3262 4.4975 0.255 7.11-3.74 7.11-10.201 0-6.465-2.595-10.262-6.9587-10.262m-23.136 0.225c-4.035 0-6.5312 3.8488-6.5312 10.228 0 6.2362 2.4575 10.011 6.6038 10.011 4.0312 0 6.5612-3.9225 6.5612-10.08 0-6.2362-2.565-10.159-6.6338-10.159m-6.9025 32.34h-2.7162c-0.28125 0-0.575 0.0987-0.575 0.44875v1.9812c0 0.31125 0.29375 0.4925 0.575 0.4925h2.7162c0.9125 0 1.6562-0.48 1.6562-1.4612s-0.74375-1.4612-1.6562-1.4612m-17.174-32.34c-4.0338 0-6.525 3.8488-6.525 10.228 0 6.2362 2.4512 10.011 6.5988 10.011 4.035 0 6.565-3.9225 6.565-10.08 0-6.2362-2.5688-10.159-6.6388-10.159m3.2962 36.15c-0.0612-0.1125-0.965-1.9812-1.0725-2.215-0.1-0.2075-0.35-0.22-0.44125 9e-3 -0.10375 0.255-0.995 2.0462-1.055 2.175-0.1 0.2125 0.0125 0.35125 0.21625 0.35125h2.1312c0.15625 0 0.31125-0.13875 0.22125-0.32-0.0612-0.1125-0.965-1.9812-1.0725-2.215-0.1-0.2075-0.35-0.22-0.44125 9e-3 -0.10375 0.255-0.995 2.0462-1.055 2.175-0.1 0.2125 0.0125 0.35125 0.21625 0.35125h2.1312c0.15625 0 0.31125-0.13875 0.22125-0.32m13.878-3.81h-2.7162c-0.28125 0-0.575 0.0987-0.575 0.44875v1.9812c0 0.31125 0.29375 0.4925 0.575 0.4925h2.7162c0.9125 0 1.6562-0.48 1.6562-1.4612s-0.74375-1.4612-1.6562-1.4612m-17.174-32.341c-4.0338 0-6.525 3.8488-6.525 10.228 0 6.2362 2.4512 10.011 6.5988 10.011 4.035 0 6.565-3.9225 6.565-10.08 0-6.2362-2.5688-10.159-6.6388-10.159m24.076 0c-4.035 0-6.5312 3.8488-6.5312 10.228 0 6.2362 2.4575 10.011 6.6038 10.011 4.0312 0 6.5612-3.9225 6.5612-10.08 0-6.2362-2.565-10.159-6.6338-10.159m23.136-0.225s-0.835 0.0562-1.245 0.12125c-1.5838 0.255-2.055 0.68375-2.055 2.6338v15.382c0 2.0975 1.3062 2.2225 3.1488 2.3262 4.4975 0.255 7.11-3.74 7.11-10.201 0-6.465-2.595-10.262-6.9587-10.262 0 0-0.835 0.0562-1.245 0.12125-1.5838 0.255-2.055 0.68375-2.055 2.6338v15.382c0 2.0975 1.3062 2.2225 3.1488 2.3262 4.4975 0.255 7.11-3.74 7.11-10.201 0-6.465-2.595-10.262-6.9587-10.262m-23.136 0.225c-4.035 0-6.5312 3.8488-6.5312 10.228 0 6.2362 2.4575 10.011 6.6038 10.011 4.0312 0 6.5612-3.9225 6.5612-10.08 0-6.2362-2.565-10.159-6.6338-10.159m-6.9025 32.34h-2.7162c-0.28125 0-0.575 0.0987-0.575 0.44875v1.9812c0 0.31125 0.29375 0.4925 0.575 0.4925h2.7162c0.9125 0 1.6562-0.48 1.6562-1.4612s-0.74375-1.4612-1.6562-1.4612m-17.174-32.34c-4.0338 0-6.525 3.8488-6.525 10.228 0 6.2362 2.4512 10.011 6.5988 10.011 4.035 0 6.565-3.9225 6.565-10.08 0-6.2362-2.5688-10.159-6.6388-10.159m3.2962 36.15c-0.0612-0.1125-0.965-1.9812-1.0725-2.215-0.1-0.2075-0.35-0.22-0.44125 9e-3 -0.10375 0.255-0.995 2.0462-1.055 2.175-0.1 0.2125 0.0125 0.35125 0.21625 0.35125h2.1312c0.15625 0 0.31125-0.13875 0.22125-0.32-0.0612-0.1125-0.965-1.9812-1.0725-2.215-0.1-0.2075-0.35-0.22-0.44125 9e-3 -0.10375 0.255-0.995 2.0462-1.055 2.175-0.1 0.2125 0.0125 0.35125 0.21625 0.35125h2.1312c0.15625 0 0.31125-0.13875 0.22125-0.32m13.878-3.81h-2.7162c-0.28125 0-0.575 0.0987-0.575 0.44875v1.9812c0 0.31125 0.29375 0.4925 0.575 0.4925h2.7162c0.9125 0 1.6562-0.48 1.6562-1.4612s-0.74375-1.4612-1.6562-1.4612m-17.174-32.341c-4.0338 0-6.525 3.8488-6.525 10.228 0 6.2362 2.4512 10.011 6.5988 10.011 4.035 0 6.565-3.9225 6.565-10.08 0-6.2362-2.5688-10.159-6.6388-10.159m24.076 0c-4.035 0-6.5312 3.8488-6.5312 10.228 0 6.2362 2.4575 10.011 6.6038 10.011 4.0312 0 6.5612-3.9225 6.5612-10.08 0-6.2362-2.565-10.159-6.6338-10.159m23.136-0.225s-0.835 0.0562-1.245 0.12125c-1.5838 0.255-2.055 0.68375-2.055 2.6338v15.382c0 2.0975 1.3062 2.2225 3.1488 2.3262 4.4975 0.255 7.11-3.74 7.11-10.201 0-6.465-2.595-10.262-6.9587-10.262 0 0-0.835 0.0562-1.245 0.12125-1.5838 0.255-2.055 0.68375-2.055 2.6338v15.382c0 2.0975 1.3062 2.2225 3.1488 2.3262 4.4975 0.255 7.11-3.74 7.11-10.201 0-6.465-2.595-10.262-6.9587-10.262m-23.136 0.225c-4.035 0-6.5312 3.8488-6.5312 10.228 0 6.2362 2.4575 10.011 6.6038 10.011 4.0312 0 6.5612-3.9225 6.5612-10.08 0-6.2362-2.565-10.159-6.6338-10.159m-6.9025 32.34h-2.7162c-0.28125 0-0.575 0.0987-0.575 0.44875v1.9812c0 0.31125 0.29375 0.4925 0.575 0.4925h2.7162c0.9125 0 1.6562-0.48 1.6562-1.4612s-0.74375-1.4612-1.6562-1.4612m-17.174-32.34c-4.0338 0-6.525 3.8488-6.525 10.228 0 6.2362 2.4512 10.011 6.5988 10.011 4.035 0 6.565-3.9225 6.565-10.08 0-6.2362-2.5688-10.159-6.6388-10.159m3.2962 36.15c-0.0612-0.1125-0.965-1.9812-1.0725-2.215-0.1-0.2075-0.35-0.22-0.44125 9e-3 -0.10375 0.255-0.995 2.0462-1.055 2.175-0.1 0.2125 0.0125 0.35125 0.21625 0.35125h2.1312c0.15625 0 0.31125-0.13875 0.22125-0.32m-3.2962-36.15c-4.0338 0-6.525 3.8488-6.525 10.228 0 6.2362 2.4512 10.011 6.5988 10.011 4.035 0 6.565-3.9225 6.565-10.08 0-6.2362-2.5688-10.159-6.6388-10.159m24.076 0c-4.035 0-6.5312 3.8488-6.5312 10.228 0 6.2362 2.4575 10.011 6.6038 10.011 4.0312 0 6.5612-3.9225 6.5612-10.08 0-6.2362-2.565-10.159-6.6338-10.159m23.136-0.225s-0.835 0.0562-1.245 0.12125c-1.5838 0.255-2.055 0.68375-2.055 2.6338v15.382c0 2.0975 1.3062 2.2225 3.1488 2.3262 4.4975 0.255 7.11-3.74 7.11-10.201 0-6.465-2.595-10.262-6.9587-10.262 0 0-0.835 0.0562-1.245 0.12125-1.5838 0.255-2.055 0.68375-2.055 2.6338v15.382c0 2.0975 1.3062 2.2225 3.1488 2.3262 4.4975 0.255 7.11-3.74 7.11-10.201 0-6.465-2.595-10.262-6.9587-10.262m-23.136 0.225c-4.035 0-6.5312 3.8488-6.5312 10.228 0 6.2362 2.4575 10.011 6.6038 10.011 4.0312 0 6.5612-3.9225 6.5612-10.08 0-6.2362-2.565-10.159-6.6338-10.159m-24.076 0c-4.0338 0-6.525 3.8488-6.525 10.228 0 6.2362 2.4512 10.011 6.5988 10.011 4.035 0 6.565-3.9225 6.565-10.08 0-6.2362-2.5688-10.159-6.6388-10.159-4.0338 0-6.525 3.8488-6.525 10.228 0 6.2362 2.4512 10.011 6.5988 10.011 4.035 0 6.565-3.9225 6.565-10.08 0-6.2362-2.5688-10.159-6.6388-10.159m24.076 0c-4.035 0-6.5312 3.8488-6.5312 10.228 0 6.2362 2.4575 10.011 6.6038 10.011 4.0312 0 6.5612-3.9225 6.5612-10.08 0-6.2362-2.565-10.159-6.6338-10.159m23.136-0.225s-0.835 0.0562-1.245 0.12125c-1.5838 0.255-2.055 0.68375-2.055 2.6338v15.382c0 2.0975 1.3062 2.2225 3.1488 2.3262 4.4975 0.255 7.11-3.74 7.11-10.201 0-6.465-2.595-10.262-6.9587-10.262 0 0-0.835 0.0562-1.245 0.12125-1.5838 0.255-2.055 0.68375-2.055 2.6338v15.382c0 2.0975 1.3062 2.2225 3.1488 2.3262 4.4975 0.255 7.11-3.74 7.11-10.201 0-6.465-2.595-10.262-6.9587-10.262m-23.136 0.225c-4.035 0-6.5312 3.8488-6.5312 10.228 0 6.2362 2.4575 10.011 6.6038 10.011 4.0312 0 6.5612-3.9225 6.5612-10.08 0-6.2362-2.565-10.159-6.6338-10.159m-24.076 0c-4.0338 0-6.525 3.8488-6.525 10.228 0 6.2362 2.4512 10.011 6.5988 10.011 4.035 0 6.565-3.9225 6.565-10.08 0-6.2362-2.5688-10.159-6.6388-10.159" fill="#006f46"/>
</svg>
